# xmcd CD database file
#
# Track frame offsets:
#	150
#	3122
#	23550
#	48800
#	73430
#	96265
#	114100
#	136497
#	159385
#	180170
#	180875
#	201645
#	224210
#	245955
#	266805
#	295662
#	318087
#
# Disc length: 4440 seconds
#
# Revision: 6
# Processed by: cddbd v1.5PL3 Copyright (c) Steve Scherf et al.
# Submitted via: CDex 1.51
#
DISCID=f1115611
DTITLE=m-flo and various artists - m-flo inside
DYEAR=2004
DGENRE=Pop
TTITLE0=What is "m-flo inside"? 〜intro
TTITLE1=REEEPLAY!(by DJ HASEBE)／m-flo loves Crystal Kay
TTITLE2=miss you(Free TEMPO mix)／m-flo loves melody.&山本領平
TTITLE3=SPEEDY WONDER／MIC BANDITZ
TTITLE4=Radio Radio／MIC BANDITZ
TTITLE5=hey boy...／日之内絵美
TTITLE6=Crying／日之内絵美
TTITLE7=CANDY POP feat. SOUL'd OUT／Heartsdales
TTITLE8=Body Rock／Heartsdales
TTITLE9=m-flo is DOPE! 〜interlude
TTITLE10=Just Say So feat. VERBAL(m-flo)／SUITE CHIC
TTITLE11=Spectacular／Fantastic Plastic Machine
TTITLE12=hard to say／Crystal Kay
TTITLE13=Get Out! feat. BONNIE PINK&VERBAL／DJ HASEBE
TTITLE14=AIDA(020609TACHYTELIC REMIX)
TTITLE15=3RD ALBUM SNIPPET DUB 〜outro
TTITLE16=CCCD
EXTD=YEAR: 2004
EXTT0=
EXTT1=
EXTT2=
EXTT3=
EXTT4=
EXTT5=
EXTT6=
EXTT7=
EXTT8=
EXTT9=
EXTT10=
EXTT11=
EXTT12=
EXTT13=
EXTT14=
EXTT15=
EXTT16=
PLAYORDER=
